<svg id="Layer_1" data-name="Layer 1" xmlns="http://www.w3.org/2000/svg" viewBox="0 0 135.56 149"><defs><style>.cls-1{fill:#202532;}.cls-2{fill:#f4912d;}.cls-3{fill:#f7931e;}.cls-4{font-size:12px;}.cls-4,.cls-7{fill:#fff;font-family:MyriadPro-Regular, Myriad Pro;}.cls-5{letter-spacing:0em;}.cls-6{letter-spacing:0em;}.cls-7{font-size:7px;}.cls-8{letter-spacing:-0.01em;}.cls-9{letter-spacing:-0.01em;}.cls-10{font-size:6px;}.cls-11{letter-spacing:0em;}.cls-12{letter-spacing:-0.01em;}.cls-13{letter-spacing:-0.01em;}.cls-14{letter-spacing:-0.01em;}.cls-15{letter-spacing:0em;}.cls-16{letter-spacing:-0.04em;}.cls-17{letter-spacing:-0.05em;}.cls-18{letter-spacing:0.01em;}.cls-19{letter-spacing:0.02em;}.cls-20{letter-spacing:-0.02em;}.cls-21{letter-spacing:0em;}.cls-22{letter-spacing:-0.01em;}.cls-23{letter-spacing:-0.01em;}</style></defs><title>prøv_igen</title><rect class="cls-1" x="0.5" y="0.5" width="134.56" height="148" rx="11.5" ry="11.5"/><path d="M154.56,28a11,11,0,0,1,11,11V164a11,11,0,0,1-11,11H43a11,11,0,0,1-11-11V39A11,11,0,0,1,43,28H154.56m0-1H43A12,12,0,0,0,31,39V164a12,12,0,0,0,12,12H154.56a12,12,0,0,0,12-12V39a12,12,0,0,0-12-12Z" transform="translate(-31 -27)"/><rect class="cls-2" x="13.5" y="33.5" width="108.56" height="102" rx="11.5" ry="11.5"/><path class="cls-3" d="M141.56,61a11,11,0,0,1,11,11v79a11,11,0,0,1-11,11H56a11,11,0,0,1-11-11V72A11,11,0,0,1,56,61h85.56m0-1H56A12,12,0,0,0,44,72v79a12,12,0,0,0,12,12h85.56a12,12,0,0,0,12-12V72a12,12,0,0,0-12-12Z" transform="translate(-31 -27)"/><text class="cls-4" transform="translate(37.68 23.89)">P<tspan class="cls-5" x="6.38" y="0">R</tspan><tspan class="cls-6" x="12.88" y="0">ØV IGEN...</tspan></text><text class="cls-7" transform="translate(23.93 47.02)">3 gode <tspan class="cls-8" x="21.77" y="0">r</tspan><tspan x="24.02" y="0">åd om billededelin</tspan><tspan class="cls-9" x="78.51" y="0">g</tspan><tspan x="82.32" y="0">...</tspan><tspan class="cls-10"><tspan x="0" y="15.6">1. Husk </tspan><tspan class="cls-11" x="19.27" y="15.6">a</tspan><tspan x="22.14" y="15.6">t spø</tspan><tspan class="cls-12" x="34.48" y="15.6">r</tspan><tspan x="36.4" y="15.6">g</tspan><tspan class="cls-13" x="39.75" y="15.6">e</tspan><tspan x="42.68" y="15.6">, </tspan><tspan class="cls-14" x="45.2" y="15.6">f</tspan><tspan x="46.87" y="15.6">ør du deler </tspan><tspan x="0" y="30">2. </tspan><tspan class="cls-15" x="5.59" y="30">D</tspan><tspan x="9.61" y="30">el </tspan><tspan class="cls-15" x="15.31" y="30">k</tspan><tspan x="18.14" y="30">un billeder og film af dig </tspan><tspan x="0" y="37.2">sel</tspan><tspan class="cls-16" x="6.8" y="37.2">v</tspan><tspan x="9.45" y="37.2">, som alle må se – også din </tspan><tspan x="0" y="44.4">mo</tspan><tspan class="cls-15" x="8.3" y="44.4">r</tspan><tspan x="10.28" y="44.4">mo</tspan><tspan class="cls-17" x="18.58" y="44.4">r</tspan><tspan x="20.23" y="44.4">.</tspan><tspan x="0" y="58.8">3. </tspan><tspan class="cls-18" x="5.59" y="58.8">H</tspan><tspan x="9.56" y="58.8">vis du modtager et billede der </tspan><tspan x="0" y="66">i</tspan><tspan class="cls-19" x="1.4" y="66">k</tspan><tspan x="4.32" y="66">ke er tiltænkt di</tspan><tspan class="cls-20" x="43.27" y="66">g</tspan><tspan x="46.53" y="66">, så slet billedet </tspan><tspan x="0" y="73.2">f</tspan><tspan class="cls-21" x="1.75" y="73.2">r</tspan><tspan x="3.68" y="73.2">a din </tspan><tspan class="cls-22" x="17.24" y="73.2">t</tspan><tspan x="19.19" y="73.2">ele</tspan><tspan class="cls-23" x="26.62" y="73.2">f</tspan><tspan x="28.29" y="73.2">on</tspan></tspan></text></svg>
