<svg id="Layer_1" data-name="Layer 1" xmlns="http://www.w3.org/2000/svg" xmlns:xlink="http://www.w3.org/1999/xlink" viewBox="0 0 723 548.39"><defs><style>.cls-1{fill:none;}.cls-2{clip-path:url(#clip-path);}.cls-3{fill:#152230;}.cls-4{font-size:34px;fill:#fff;font-family:Futura-Medium, Futura;}.cls-5{letter-spacing:-0.02em;}.cls-6{letter-spacing:0.01em;}.cls-7{letter-spacing:-0.02em;}.cls-8{letter-spacing:0.02em;}.cls-9{letter-spacing:0.01em;}</style><clipPath id="clip-path" transform="translate(-0.03 209.65)"><rect class="cls-1" x="0.03" y="-1.26" width="723" height="340"/></clipPath></defs><title>talebobel_dilemma</title><text x="-0.03" y="209.65"></text><g id="Artwork_1" data-name="Artwork 1"><g class="cls-2"><g class="cls-2"><path class="cls-3" d="M105.25,300.15c-3.81,1.51-6.47,5-9.56,7.74C84.79,317.49,74,327.27,63.17,337c-.86.76-1.65,2.24-2.88,1.66-1.53-.73-.92-2.59-.92-4,0-19.64-.17-39.28.07-58.91.05-4.6-1.2-5.5-4.82-5.41-10.66.27-21.32.18-32,.05C9.69,270.23.17,258.75.17,243.61.2,171.88.47,100.15,0,28.42-.08,10.1,11.13-1.28,25.45-1.26q337.14.45,674.3.21C713.59-1,723,9.91,723,26.19q0,108.6,0,217.19c0,13.61-6.08,22.52-18.39,26.81-2.42.05-4.83.15-7.25.15H296.61q-77.18,0-154.35,0c-3.21,0-5.92.55-8.59,3.19-5.42,5.34-11.43,9.85-16.88,15.15-3.88,3.78-8.7,6.31-11.54,11.52" transform="translate(-0.03 209.65)"/></g></g></g><text class="cls-4" transform="translate(42.37 272.79)">Dilemma... H<tspan class="cls-5" x="201.51" y="0">v</tspan><tspan x="218.01" y="0">ad gør du hvis du har </tspan><tspan x="0" y="40.8">mod</tspan><tspan class="cls-6" x="67.72" y="40.8">t</tspan><tspan x="77.31" y="40.8">ag</tspan><tspan class="cls-6" x="118.05" y="40.8">e</tspan><tspan x="137.16" y="40.8">t </tspan><tspan class="cls-6" x="156.95" y="40.8">e</tspan><tspan x="176.06" y="40.8">t billede som du </tspan><tspan class="cls-5" x="431.16" y="40.8">v</tspan><tspan x="447.66" y="40.8">ed ik</tspan><tspan class="cls-7" x="522.75" y="40.8">k</tspan><tspan x="539.14" y="40.8">e er </tspan><tspan x="0" y="81.6">tiltænkt dig, og du </tspan><tspan class="cls-8" x="291.04" y="81.6">f</tspan><tspan x="301.85" y="81.6">inder ud af, at du ik</tspan><tspan class="cls-7" x="607.22" y="81.6">k</tspan><tspan x="623.6" y="81.6">e </tspan><tspan x="0" y="122.4">er den </tspan><tspan class="cls-9" x="110.35" y="122.4">f</tspan><tspan x="120.83" y="122.4">ørs</tspan><tspan class="cls-6" x="167.78" y="122.4">t</tspan><tspan x="177.37" y="122.4">e der har mod</tspan><tspan class="cls-6" x="399.04" y="122.4">t</tspan><tspan x="408.63" y="122.4">ag</tspan><tspan class="cls-6" x="449.37" y="122.4">e</tspan><tspan x="468.48" y="122.4">t d</tspan><tspan class="cls-6" x="508.65" y="122.4">e</tspan><tspan x="527.76" y="122.4">t? </tspan></text><text x="-0.03" y="209.65"></text><text x="-0.03" y="209.65"></text><text x="-0.03" y="209.65"></text></svg>
